<?xml version="1.0" standalone="no"?>
<!DOCTYPE svg PUBLIC "-//W3C//DTD SVG 20010904//EN"
 "http://www.w3.org/TR/2001/REC-SVG-20010904/DTD/svg10.dtd">
<svg version="1.0" xmlns="http://www.w3.org/2000/svg"
 width="165.000000pt" height="165.000000pt" viewBox="0 0 165.000000 165.000000"
 preserveAspectRatio="xMidYMid meet">

<g transform="translate(0.000000,165.000000) scale(0.100000,-0.100000)"
fill="#000000" stroke="none">
<path d="M0 825 l0 -825 825 0 825 0 0 825 0 825 -825 0 -825 0 0 -825z m965
781 c288 -64 489 -248 593 -541 36 -103 42 -296 13 -417 -40 -170 -112 -291
-251 -422 -133 -124 -294 -189 -475 -189 -106 -1 -189 19 -294 69 -225 106
-381 294 -442 533 -22 86 -26 279 -7 360 19 86 24 57 9 -54 -34 -239 40 -469
207 -647 117 -124 261 -202 427 -233 105 -20 206 -11 326 30 229 77 411 283
481 544 28 105 28 276 -1 384 -60 228 -240 437 -449 522 -179 73 -385 73 -565
0 -34 -13 -63 -22 -66 -20 -12 12 158 72 249 88 54 9 188 6 245 -7z m35 -47
c200 -55 364 -183 464 -363 15 -27 42 -90 59 -140 28 -84 31 -101 31 -221 0
-113 -4 -142 -28 -220 -36 -120 -95 -222 -183 -315 -76 -81 -149 -138 -161
-126 -4 4 1 12 11 17 86 49 203 182 263 301 58 115 79 206 79 343 0 132 -20
216 -75 325 -113 224 -363 395 -585 401 -94 3 -117 17 -30 18 53 1 106 -6 155
-20z m-266 -71 c-4 -6 -10 -5 -15 3 -14 22 -10 33 6 19 8 -7 12 -17 9 -22z
m-118 -108 c37 -55 66 -101 63 -103 -2 -1 -15 -11 -29 -22 -18 -14 -21 -15
-12 -3 12 14 7 29 -28 100 -23 46 -52 96 -63 112 -12 16 -16 26 -10 23 6 -4
42 -52 79 -107z m339 51 c4 -33 4 -73 0 -90 l-6 -30 -34 16 c-29 14 -34 21
-31 45 2 16 10 36 18 46 23 26 30 42 19 42 -5 0 -24 -22 -42 -50 -35 -55 -35
-54 -44 -40 -6 10 91 120 105 120 5 0 11 -27 15 -59z m-368 -78 c35 -73 38
-113 7 -113 -8 0 -14 -7 -14 -15 0 -8 -7 -15 -15 -15 -8 0 -12 -6 -9 -14 4 -9
-6 -21 -27 -31 -27 -14 -36 -15 -56 -4 -13 7 -26 24 -30 38 -9 37 13 151 43
218 l25 58 21 -25 c12 -14 36 -57 55 -97z m493 96 c0 -6 -4 -7 -10 -4 -5 3
-10 11 -10 16 0 6 5 7 10 4 6 -3 10 -11 10 -16z m-275 -38 c-17 -17 -28 -19
-75 -12 l-55 7 50 8 c28 4 55 9 60 11 30 10 39 4 20 -14z m262 -31 c136 -59
262 -196 313 -343 28 -78 38 -249 21 -340 -22 -110 -82 -219 -175 -313 -46
-46 -90 -84 -98 -84 -16 0 -32 45 -44 118 -7 45 -56 114 -99 141 l-23 14 28
36 c16 20 30 45 32 55 1 11 17 27 33 36 28 16 32 16 58 1 16 -9 40 -31 53 -49
24 -30 81 -68 90 -59 6 6 -116 137 -128 137 -6 0 -5 -7 3 -17 11 -15 11 -16
-1 -6 -8 7 -15 19 -16 28 -3 23 82 -25 148 -84 31 -28 59 -51 62 -51 12 0 6
20 -6 20 -14 1 -124 100 -111 100 5 0 33 -21 63 -47 l55 -47 -43 46 c-24 25
-71 62 -105 82 -34 20 -56 36 -50 36 6 0 20 3 30 6 14 4 15 4 4 -4 -10 -7 -5
-13 23 -22 20 -6 59 -27 87 -46 51 -34 69 -41 69 -26 0 24 -107 92 -178 113
-40 11 -43 15 -38 38 29 124 28 144 -4 247 -30 92 -36 103 -90 154 l-58 55 5
53 c6 59 5 58 90 22z m203 -34 c0 -3 -4 -8 -10 -11 -5 -3 -10 -1 -10 4 0 6 5
11 10 11 6 0 10 -2 10 -4z m-259 -103 c42 -38 83 -106 76 -126 -2 -7 -16 11
-30 39 -14 28 -42 65 -61 82 -34 29 -43 42 -31 42 3 0 23 -17 46 -37z m-112
-43 c61 -30 102 -70 96 -90 -3 -9 -2 -25 2 -35 6 -18 7 -18 14 1 6 18 7 18 14
1 5 -11 1 -25 -11 -38 -13 -15 -15 -22 -6 -31 17 -17 15 -31 -2 -25 -21 8 -9
-21 26 -61 15 -18 28 -37 28 -42 0 -17 -77 -12 -84 5 -3 8 -10 15 -16 15 -23
0 38 -79 63 -80 12 0 8 28 -5 33 -7 3 1 6 18 6 19 1 38 -7 49 -19 16 -18 17
-25 6 -60 -7 -23 -18 -40 -27 -40 -23 0 -26 22 -9 63 20 49 19 54 -8 26 -12
-13 -21 -32 -19 -41 5 -23 -66 -68 -118 -75 -22 -3 -43 -10 -46 -14 -3 -5 -10
-9 -16 -9 -7 0 1 14 17 30 38 40 23 38 -37 -6 -28 -19 -52 -34 -54 -31 -6 6
25 30 76 60 25 15 39 27 32 27 -24 0 -133 -61 -175 -98 -43 -38 -32 -15 13 26
17 17 20 22 8 18 -30 -9 -20 2 26 29 27 16 50 23 61 18 12 -4 16 -3 12 4 -4 6
0 13 8 17 21 8 19 36 -2 36 -63 -1 -203 -51 -246 -88 -9 -8 -20 -13 -23 -9
-10 9 96 66 158 85 55 16 76 32 43 32 -27 0 -62 22 -78 50 -44 74 7 134 63 75
14 -15 40 -28 62 -32 21 -3 41 -10 44 -14 11 -18 44 -9 44 11 0 11 -5 20 -10
20 -6 0 -20 21 -30 46 l-20 45 -93 -3 c-70 -2 -98 -7 -110 -19 -9 -9 -13 -19
-10 -23 4 -3 4 -6 1 -6 -3 0 -12 8 -19 17 -12 14 -12 16 1 9 8 -4 4 2 -10 14
-14 12 -19 19 -13 15 9 -4 11 -1 7 10 -4 9 -12 14 -19 12 -17 -7 -12 25 8 53
15 21 19 23 27 10 7 -11 60 -26 60 -17 0 1 -4 17 -9 34 -6 20 -6 35 0 38 5 4
9 1 9 -6 0 -8 4 -8 15 1 21 17 58 5 100 -31 46 -41 45 -20 -1 25 -35 34 -35
35 -12 39 52 10 91 6 127 -13z m160 -85 c26 -55 37 -100 24 -92 -11 7 -83 148
-83 162 0 18 40 -29 59 -70z m61 -70 c18 -63 6 -67 -14 -6 -18 57 -19 64 -7
57 4 -3 14 -26 21 -51z m-599 28 c13 -16 12 -17 -3 -4 -10 7 -18 15 -18 17 0
8 8 3 21 -13z m-190 -30 c-8 -15 -10 -15 -11 -2 0 17 10 32 18 25 2 -3 -1 -13
-7 -23z m1124 -3 c3 -5 1 -10 -4 -10 -6 0 -11 5 -11 10 0 6 2 10 4 10 3 0 8
-4 11 -10z m-897 -41 c-3 -8 -7 -3 -11 10 -4 17 -3 21 5 13 5 -5 8 -16 6 -23z
m482 -1 c0 -36 -4 -35 -14 5 -4 16 -2 27 4 27 5 0 10 -14 10 -32z m-248 -10
l1 -33 4 33 c5 38 28 43 37 7 12 -46 -18 -60 -62 -29 -28 19 -30 54 -2 54 16
0 20 -7 22 -32z m-203 -23 l0 -20 -9 20 c-7 17 -9 16 -9 -9 -1 -16 -4 -27 -7
-23 -4 3 -3 23 1 43 5 28 9 34 16 23 5 -8 8 -23 8 -34z m881 35 c0 -5 -5 -10
-11 -10 -5 0 -7 5 -4 10 3 6 8 10 11 10 2 0 4 -4 4 -10z m-397 -50 c-7 -25
-19 -34 -28 -20 -7 11 11 40 25 40 5 0 6 -9 3 -20z m-858 0 c3 -5 -1 -10 -10
-10 -9 0 -13 5 -10 10 3 6 8 10 10 10 2 0 7 -4 10 -10z m325 -25 c0 -8 -4 -15
-9 -15 -13 0 -22 16 -14 24 11 11 23 6 23 -9z m56 -39 c-5 -50 -33 -133 -41
-124 -2 2 5 28 15 58 11 30 19 70 20 88 0 17 3 32 6 32 4 0 4 -24 0 -54z m-89
-23 c-3 -10 -5 -2 -5 17 0 19 2 27 5 18 2 -10 2 -26 0 -35z m58 -19 c-8 -43
-60 -104 -89 -104 -16 1 -14 4 12 15 36 16 71 77 73 130 1 19 3 23 6 12 3 -11
2 -34 -2 -53z m546 39 c-12 -20 -14 -14 -5 12 4 9 9 14 11 11 3 -2 0 -13 -6
-23z m389 3 c0 -2 -7 -7 -16 -10 -8 -3 -12 -2 -9 4 6 10 25 14 25 6z m-1190
-41 c0 -8 -2 -15 -4 -15 -2 0 -6 7 -10 15 -3 8 -1 15 4 15 6 0 10 -7 10 -15z
m324 -18 c2 -15 0 -27 -5 -27 -5 0 -9 14 -9 32 0 37 7 34 14 -5z m-304 -42 c0
-5 -5 -3 -10 5 -5 8 -10 20 -10 25 0 6 5 3 10 -5 5 -8 10 -19 10 -25z m470 -1
c-25 -7 -49 -13 -55 -13 -18 1 59 27 80 28 11 0 0 -7 -25 -15z m-583 0 c-3 -3
-12 -4 -19 -1 -8 3 -5 6 6 6 11 1 17 -2 13 -5z m993 -4 c8 -5 11 -10 5 -10 -5
0 -17 5 -25 10 -8 5 -10 10 -5 10 6 0 17 -5 25 -10z m-490 -20 c-8 -5 -19 -10
-25 -10 -5 0 -3 5 5 10 8 5 20 10 25 10 6 0 3 -5 -5 -10z m440 -10 c22 -11 40
-23 40 -25 0 -5 -79 32 -89 41 -11 10 14 2 49 -16z m120 -6 c22 -15 39 -29 36
-31 -3 -3 -71 38 -85 53 -13 13 15 0 49 -22z m-262 -31 c-4 -20 -51 -46 -75
-41 -11 2 -4 11 23 31 45 31 57 34 52 10z m-674 -29 c3 -8 2 -12 -4 -9 -6 3
-10 10 -10 16 0 14 7 11 14 -7z m846 -19 c19 -19 29 -35 24 -35 -6 0 -25 16
-44 35 -19 19 -29 35 -24 35 6 0 25 -16 44 -35z m-830 -30 c14 -19 14 -19 -2
-6 -10 7 -18 18 -18 24 0 6 1 8 3 6 1 -2 9 -13 17 -24z m100 -15 c8 -5 11 -10
5 -10 -5 0 -17 5 -25 10 -8 5 -10 10 -5 10 6 0 17 -5 25 -10z m97 4 c-3 -3
-12 -4 -19 -1 -8 3 -5 6 6 6 11 1 17 -2 13 -5z m-197 -29 c-7 -8 -17 -15 -23
-15 -6 0 -2 7 9 15 25 19 30 19 14 0z m333 -2 c-7 -2 -19 -2 -25 0 -7 3 -2 5
12 5 14 0 19 -2 13 -5z m229 -25 c-6 -6 -40 -13 -74 -14 l-63 -3 63 8 c34 4
65 11 69 14 3 4 9 7 12 7 3 0 0 -5 -7 -12z m-239 -5 c-7 -2 -19 -2 -25 0 -7 3
-2 5 12 5 14 0 19 -2 13 -5z m65 -10 c-10 -2 -26 -2 -35 0 -10 3 -2 5 17 5 19
0 27 -2 18 -5z m192 -8 c0 -2 -10 -9 -22 -15 -22 -11 -22 -10 -4 4 21 17 26
19 26 11z m-434 -46 c19 -22 19 -22 -3 -8 -13 8 -23 17 -23 21 0 12 6 9 26
-13z m554 -78 c0 -31 -3 -28 -29 34 l-21 50 25 -30 c14 -16 25 -41 25 -54z
m-41 9 c0 -10 -3 -8 -9 5 -12 27 -12 43 0 25 5 -8 9 -22 9 -30z m-501 10 c-7
-11 -17 -20 -22 -20 -5 0 -1 9 9 20 10 11 20 20 22 20 2 0 -2 -9 -9 -20z m509
-82 c-2 -13 -4 -5 -4 17 -1 22 1 32 4 23 2 -10 2 -28 0 -40z m-386 -34 c18
-27 29 -55 29 -76 l0 -33 -20 25 c-11 14 -20 39 -20 57 0 19 -10 44 -27 65
-15 18 -20 27 -10 19 10 -8 32 -34 48 -57z m0 49 c13 -16 12 -17 -3 -4 -17 13
-22 21 -14 21 2 0 10 -8 17 -17z m314 -34 c4 -15 2 -36 -4 -46 -9 -15 -10 -12
-6 12 7 40 -8 64 -29 46 -9 -7 -13 -18 -9 -24 3 -5 1 -7 -4 -4 -6 4 -13 0 -17
-8 -3 -8 -11 -15 -17 -15 -8 0 -8 4 1 15 6 8 8 20 4 26 -10 17 21 37 50 32 17
-4 27 -14 31 -34z m125 -11 c0 -16 -4 -28 -10 -28 -5 0 -10 19 -10 43 0 31 3
38 10 27 5 -8 10 -27 10 -42z m-508 -34 c56 -61 88 -105 88 -122 0 -24 -24 -7
-42 29 -9 20 -35 52 -57 72 -23 20 -41 44 -41 52 0 23 6 19 52 -31z m368 29
c-1 -23 -60 -65 -60 -42 0 6 9 13 20 16 11 3 20 12 20 19 0 8 5 14 10 14 6 0
10 -3 10 -7z m345 -3 c3 -5 1 -10 -4 -10 -6 0 -11 5 -11 10 0 6 2 10 4 10 3 0
8 -4 11 -10z m-181 -56 c10 -25 7 -74 -4 -74 -20 0 -25 5 -24 28 1 12 -4 22
-10 22 -6 0 -4 5 4 10 13 9 13 10 0 10 -13 0 -13 1 0 10 21 13 27 12 34 -6z
m56 -74 c0 -11 -7 -20 -15 -20 -15 0 -21 21 -8 33 12 13 23 7 23 -13z"/>
<path d="M765 740 c-16 -11 -25 -20 -20 -20 6 0 24 9 40 20 17 11 26 20 20 20
-5 0 -23 -9 -40 -20z"/>
<path d="M890 355 c-8 -9 -8 -15 -2 -15 12 0 26 19 19 26 -2 2 -10 -2 -17 -11z"/>
</g>
</svg>
