<?xml version="1.0" encoding="UTF-8"?>
<svg xmlns="http://www.w3.org/2000/svg" width="156" height="40" viewBox="0 0 156 40" fill="none">
  <path d="M119.799 23.7353V27.1571H117.44V29.5904H104.725C102.136 29.5904 100.839 28.622 100.839 26.6872V17.6186H103.999V26.2374C103.999 26.6163 104.241 26.8069 104.725 26.8069H116.687V23.7353H119.799ZM85.6028 29.5904C82.3688 29.5904 80.7469 28.3228 80.7469 25.7897V21.4349C80.7469 18.8907 82.3664 17.6186 85.6028 17.6186H94.2207C97.4571 17.6186 99.0742 18.8907 99.0742 21.4349V25.7897C99.0742 28.3228 97.4571 29.5904 94.2207 29.5904H85.6028ZM85.6028 20.4021C84.4754 20.4021 83.9094 20.7478 83.9094 21.4349V25.7897C83.9094 26.4678 84.4731 26.8069 85.6028 26.8069H94.2207C95.3481 26.8069 95.9142 26.4678 95.9142 25.7897V21.4349C95.9142 20.7456 95.3481 20.4021 94.2207 20.4021H85.6028ZM65.5129 29.5904C62.2764 29.5904 60.657 28.3228 60.657 25.7897V21.4349C60.657 18.8907 62.2764 17.6186 65.5129 17.6186H74.1307C77.3672 17.6186 78.9842 18.8907 78.9842 21.4349V25.7897C78.9842 28.3228 77.3648 29.5904 74.1307 29.5904H65.5129ZM65.5129 20.4021C64.3855 20.4021 63.8194 20.7478 63.8194 21.4349V25.7897C63.8194 26.4678 64.3831 26.8069 65.5129 26.8069H74.1307C75.2581 26.8069 75.8242 26.4678 75.8242 25.7897V21.4349C75.8242 20.7456 75.2581 20.4021 74.1307 20.4021H65.5129ZM46.1801 25.2667V29.5904H43.0176V22.4787C47.3003 22.4787 50.981 22.4831 55.2661 22.4831C55.7485 22.4831 55.9922 22.3369 55.9922 22.0487V20.8365C55.9922 20.5462 55.7485 20.4021 55.2661 20.4021C50.9834 20.4021 47.3003 20.4021 43.0176 20.4021V17.6186H55.2661C57.8552 17.6186 59.1522 18.5915 59.1522 20.5373V22.3479C59.1522 24.2915 57.8576 25.2667 55.2708 25.2667H46.1801ZM137.339 0.0198059H151.522C154.006 0.0198059 155.245 0.99493 155.245 2.93853V4.0156C155.245 6.0412 154.006 7.054 151.522 7.054H150.44L155.778 11.9917H151.424L146.413 7.20248H140.501V11.9917H137.339C137.339 9.24803 137.339 6.50217 137.339 3.75852H142.171L142.909 4.71148C146.009 4.71148 148.507 4.72035 151.617 4.71813C152.038 4.71813 152.248 4.55635 152.248 4.235V3.27096C152.248 2.95848 152.004 2.80334 151.522 2.80334C146.343 2.80334 142.514 2.80556 137.339 2.80556V0.0198059ZM135.089 9.20813V11.9917H122.198C119.606 11.9917 118.309 11.0143 118.309 9.05965V2.93853C118.309 0.992714 119.606 0.0198059 122.198 0.0198059H135.041V2.80334H122.198C121.713 2.80334 121.471 2.99837 121.471 3.38842V4.59846H134.943V7.38199H121.471V8.60976C121.471 9.00868 121.713 9.20813 122.198 9.20813H135.089ZM106.682 8.64079C106.906 9.01976 107.19 9.20813 107.537 9.20813H108.406C108.557 9.20813 108.705 9.16603 108.85 9.08181C108.996 8.9976 109.128 8.85354 109.245 8.65409L114.569 0.0198059H118.197L111.454 10.99C111.036 11.657 110.379 11.9917 109.488 11.9917H106.438C106.149 11.9917 105.908 11.9695 105.712 11.9252C105.521 11.8809 105.354 11.8144 105.213 11.7302C105.074 11.6459 104.952 11.5396 104.85 11.4155C104.749 11.2914 104.649 11.1451 104.551 10.9744L97.7939 0.0198059H101.439L106.682 8.64079ZM79.6936 0.0198059H93.8743C96.3584 0.0198059 97.6004 0.99493 97.6004 2.93853V4.0156C97.6004 6.0412 96.3584 7.054 93.8743 7.054H92.7947L98.1331 11.9917H93.7788L88.7676 7.20248H82.8536V11.9917H79.6936C79.6936 9.24803 79.6936 6.50217 79.6936 3.75852H84.5232L85.2613 4.71148C88.364 4.71148 90.8624 4.72035 93.9723 4.71813C94.3903 4.71813 94.6005 4.55635 94.6005 4.235V3.27096C94.6005 2.95848 94.3592 2.80334 93.8743 2.80334C88.696 2.80334 84.8696 2.80556 79.6936 2.80556V0.0198059ZM77.4436 9.20813V11.9917H64.5503C61.9611 11.9917 60.6641 11.0143 60.6641 9.05965V4.64721H77.2979V7.38199H63.8266V8.60976C63.8266 9.00868 64.0678 9.20813 64.5503 9.20813H77.4436ZM60.6689 2.73464C60.7597 0.926228 62.0519 0.0198059 64.5503 0.0198059H77.3958V2.73464H60.6689ZM58.696 0.0198059V2.80334H45.8051C45.3106 2.80334 45.0622 2.94961 45.0622 3.23772V4.1663C45.0622 4.4544 45.3106 4.59846 45.8051 4.59846H55.2278C57.8098 4.59846 59.0997 5.55364 59.0997 7.45734V9.08846C59.0997 11.0232 57.8027 11.9917 55.2135 11.9917H42.3202V9.20813H55.2135C55.696 9.20813 55.9396 9.06852 55.9396 8.78928V7.81637C55.9396 7.52826 55.696 7.38199 55.2135 7.38199H45.7883C43.1968 7.38199 41.8998 6.52876 41.8998 4.82451V2.93853C41.8998 0.992714 43.2016 0.0198059 45.8051 0.0198059H58.696Z" fill="url(#paint0_linear_26_65)"></path>
  <path d="M11.0065 34.6967C9.06939 33.8833 7.31859 32.7531 5.83531 31.3768C2.6705 28.4404 0.714294 24.3848 0.714294 19.9058C0.714294 15.4247 2.67289 11.3691 5.83531 8.43261C7.31859 7.05635 9.06939 5.9261 11.0065 5.11275V0H15.8051V6.83252H15.8003V8.34396C13.2565 8.79606 10.985 9.9507 9.22703 11.5818C6.93404 13.7116 5.51286 16.6547 5.51286 19.9058C5.51286 23.157 6.93404 26.1001 9.22703 28.2298C10.985 29.8587 13.2565 31.0134 15.8003 31.4655V33.1653H15.8051V39.9978H11.0065V34.6967ZM17.95 9.36784L20.5989 7.60154V3.83401V0H25.3974V5.11719C27.3321 5.92831 29.0805 7.05857 30.5614 8.43482C33.7262 11.3691 35.6848 15.4269 35.6848 19.9058C35.6848 24.3848 33.7262 28.4404 30.5614 31.3768C29.0805 32.7509 27.3345 33.8811 25.3998 34.6923V39.9978H20.6012V35.9776H20.5989V31.5829H17.95V25.9516L14.7469 23.813V16.7034L17.95 14.567V9.36784ZM22.4762 8.82044V30.9912C24.2605 30.3973 25.8584 29.4465 27.1697 28.2298C29.4651 26.0979 30.8839 23.1548 30.8839 19.9058C30.8839 16.6547 29.4651 13.7116 27.1697 11.5818C25.8584 10.3651 24.2605 9.41216 22.4762 8.82044Z" fill="url(#paint1_linear_26_65)"></path>
  <path fill-rule="evenodd" clip-rule="evenodd" d="M126.198 17.1333H155.971V27.2901H126.198V17.1333ZM132.693 18.4564H134.685V26.0047H132.693V18.4564ZM141.318 26.0047C139.278 26.0047 138.258 25.2047 138.258 23.6068V20.861C138.258 19.2587 139.278 18.4564 141.318 18.4564H147.604C149.644 18.4564 150.664 19.2587 150.664 20.861V23.6068C150.664 25.2047 149.644 26.0047 147.604 26.0047H141.318ZM141.318 20.2116C140.608 20.2116 140.253 20.4288 140.253 20.861V23.6068C140.253 24.0346 140.606 24.2495 141.318 24.2495H147.604C148.316 24.2495 148.672 24.0346 148.672 23.6068V20.861C148.672 20.4266 148.316 20.2116 147.604 20.2116H141.318Z" fill="#B1B3C2"></path>
  <path d="M43.8775 38.6924C43.8871 38.9185 43.9874 39.0825 44.1785 39.18C44.3696 39.2775 44.6108 39.3374 44.9022 39.3573C45.2127 39.3728 45.4659 39.3396 45.6594 39.2598C45.8552 39.1778 45.9532 39.0515 45.9532 38.8742C45.9532 38.7168 45.8934 38.606 45.7716 38.5373C45.6498 38.4686 45.4731 38.4265 45.2462 38.4043C45.153 38.3955 45.0551 38.3866 44.9524 38.38C44.8497 38.3711 44.7422 38.3622 44.6347 38.3534C44.4388 38.3379 44.2477 38.3135 44.0638 38.278C43.8799 38.2426 43.7151 38.1827 43.5718 38.0985C43.4285 38.0165 43.3114 37.9057 43.2255 37.7661C43.1395 37.6287 43.0965 37.4536 43.0965 37.2431C43.0965 37.0347 43.1514 36.8619 43.2613 36.72C43.3735 36.5804 43.5169 36.4674 43.6888 36.3832C43.8632 36.3012 44.0567 36.2413 44.2692 36.2059C44.4794 36.1704 44.6848 36.1571 44.8879 36.1616C45.1148 36.166 45.3369 36.1882 45.5543 36.2303C45.7716 36.2702 45.9651 36.3366 46.1323 36.4297C46.3019 36.5228 46.438 36.6469 46.5431 36.8043C46.6506 36.9594 46.7079 37.1544 46.7199 37.3849L45.7669 37.4381C45.7716 37.212 45.6952 37.0503 45.5376 36.955C45.3799 36.8597 45.1721 36.8087 44.9118 36.8043C44.809 36.7976 44.7063 36.802 44.606 36.8153C44.5057 36.8286 44.4149 36.8486 44.3337 36.8796C44.2525 36.9084 44.1856 36.9505 44.1331 36.9993C44.0829 37.0503 44.0543 37.1167 44.0495 37.1965C44.0376 37.3539 44.102 37.4625 44.243 37.5245C44.3839 37.5888 44.5583 37.6331 44.7637 37.6575C44.8688 37.6686 44.9715 37.6752 45.0742 37.6841C45.1769 37.6907 45.2844 37.6996 45.3919 37.7107C45.5925 37.7262 45.786 37.755 45.9699 37.7971C46.1538 37.8392 46.3162 37.9035 46.4548 37.9899C46.5933 38.0763 46.7032 38.1849 46.7796 38.3179C46.8584 38.4531 46.899 38.6193 46.899 38.821C46.899 39.0382 46.8417 39.2221 46.727 39.3728C46.6124 39.5235 46.4643 39.6454 46.2828 39.7385C46.1012 39.8316 45.8958 39.9003 45.6689 39.9402C45.4396 39.9801 45.2103 40 44.9762 40C44.7374 39.9956 44.4985 39.9756 44.2597 39.9402C44.0208 39.9047 43.8035 39.8404 43.6076 39.7474C43.4141 39.6543 43.2517 39.5257 43.1227 39.3617C42.9962 39.1977 42.9245 38.985 42.9078 38.7235L43.8775 38.6924ZM53.8282 36.1926H57.9102V36.8331H56.3385V39.969H55.4094V36.8331H53.8282V36.1926ZM67.4118 39.1756H65.4914L65.0997 39.969H64.075L65.9954 36.1926H66.9078L68.821 39.969H67.7963L67.4118 39.1756ZM65.7923 38.5329H67.1108L66.6068 37.4846L66.4444 37.099L66.2891 37.4846L65.7923 38.5329ZM77.2024 37.9833L78.3823 36.1926H79.4739L77.6586 38.6924V39.969H76.7294V38.7235L74.9046 36.1926H75.9962L77.2024 37.9833ZM95.8425 38.0874C95.8425 37.9877 95.8497 37.8702 95.864 37.7373C95.8783 37.6043 95.9094 37.4647 95.9619 37.3206C96.0121 37.1766 96.0861 37.037 96.1817 36.8973C96.2772 36.7599 96.4062 36.6358 96.571 36.5272C96.7382 36.4186 96.9412 36.3322 97.1825 36.2635C97.4237 36.1948 97.7151 36.1616 98.059 36.1616C98.3958 36.1616 98.6848 36.1948 98.9309 36.2591C99.1745 36.3256 99.3799 36.4098 99.5495 36.5162C99.7167 36.6225 99.8505 36.7444 99.9508 36.8818C100.053 37.0214 100.13 37.1611 100.187 37.3029C100.245 37.4425 100.28 37.5821 100.297 37.7218C100.314 37.8592 100.323 37.9833 100.323 38.0874C100.323 38.1894 100.316 38.3068 100.302 38.4398C100.288 38.5728 100.257 38.7102 100.204 38.852C100.154 38.9916 100.077 39.1313 99.9794 39.2664C99.8815 39.4038 99.7501 39.5257 99.5853 39.6343C99.4205 39.7407 99.2127 39.8294 98.9667 39.8981C98.7183 39.9668 98.4245 40 98.0829 40C97.7414 40 97.4452 39.9668 97.1992 39.8981C96.9532 39.8294 96.7454 39.7407 96.5805 39.6343C96.4157 39.5257 96.282 39.4038 96.1841 39.2664C96.0885 39.1313 96.0121 38.9916 95.9619 38.852C95.9094 38.7102 95.8783 38.5728 95.864 38.4398C95.8497 38.3068 95.8425 38.1894 95.8425 38.0874ZM98.059 36.8043C97.8202 36.8043 97.6196 36.8353 97.4548 36.9018C97.2923 36.9683 97.1586 37.0569 97.0559 37.1744C96.9532 37.2896 96.8791 37.4248 96.8361 37.5821C96.7931 37.7373 96.7716 37.9079 96.7716 38.0874C96.7716 38.2647 96.7955 38.4287 96.8409 38.5839C96.8863 38.7368 96.9603 38.8697 97.0606 38.9828C97.161 39.098 97.2947 39.1867 97.4643 39.2554C97.6315 39.3241 97.8393 39.3573 98.0829 39.3573C98.3266 39.3573 98.532 39.3241 98.6968 39.2598C98.864 39.1933 98.9954 39.1024 99.0957 38.9872C99.196 38.872 99.27 38.7368 99.3178 38.5839C99.3632 38.4287 99.3847 38.2647 99.3847 38.0874C99.3847 37.9079 99.3632 37.7373 99.3202 37.5821C99.2772 37.4248 99.2032 37.2896 99.1005 37.1744C98.9977 37.0569 98.8616 36.9683 98.6896 36.9018C98.5177 36.8353 98.3075 36.8043 98.059 36.8043ZM108.956 37.6952L108.791 37.4758V39.969H107.854V36.1926H108.905L110.788 38.4509L111.007 38.7235V36.1926H111.944V39.969H110.885L108.956 37.6952ZM119.883 36.1926H120.822V39.3263H123.475V39.969H119.883V36.1926ZM130.846 36.1926H131.783V39.969H130.846V36.1926ZM140.821 37.6952L140.659 37.4758V39.969H139.722V36.1926H140.773L142.653 38.4509L142.873 38.7235V36.1926H143.811V39.969H142.751L140.821 37.6952ZM151.751 36.1926H155.35V36.8419H152.687V37.755H154.999V38.3977H152.687V39.3263H155.384V39.969H151.751V36.1926Z" fill="#55A3FF"></path>
  <defs>
    <linearGradient id="paint0_linear_26_65" x1="45.8075" y1="23.8705" x2="126.007" y2="24.236" gradientUnits="userSpaceOnUse">
      <stop stop-color="#B1B3C2"></stop>
      <stop offset="0.611765" stop-color="white"></stop>
      <stop offset="1" stop-color="#B1B3C2"></stop>
    </linearGradient>
    <linearGradient id="paint1_linear_26_65" x1="35.7187" y1="40" x2="1.92823" y2="-2.50301" gradientUnits="userSpaceOnUse">
      <stop stop-color="#0075FF"></stop>
      <stop offset="0.442056" stop-color="#6BAFFF"></stop>
      <stop offset="1" stop-color="#0075FF"></stop>
    </linearGradient>
  </defs>
</svg>
